<svg version="1.2" xmlns="http://www.w3.org/2000/svg" viewBox="0 0 421 417" width="421" height="417">
	<style>
		.s0 { fill: #9158FF } 
		.s1 { fill: #9158FF } 
		.s2 { fill: #e9e9e9ff } 
		.s3 { fill: #e9e9e9ff } 
		.s4 { fill: #e9e9e9ff } 
		.s5 { fill: #e9e9e9ff } 
		.s6 { fill: #e9e9e9ff } 
		.s7 { fill: #e9e9e9ff } 
		.s8 { fill: #e9e9e9ff }
		.s10 { fill: #9158FF } 
		.s11 { fill: #9158FF } 
		.s12 { fill: #9158FF } 
		.s13 { fill: #9158FF } 
		.s14 { fill: #9158FF } 
		.s15 { fill: #9158FF } 
		.s16 { fill: #9158FF } 
		.s17 { fill: #9158FF } 
	</style>
	<path class="s0" d="m141.2 77.23q6.51 0.02 13.03 0 10.92-0.01 21.84 0.04 12.58 0.05 25.16 0.02 12.18-0.03 24.35 0 5.15 0.01 10.3 0 6.08-0.02 12.15 0.03 2.21 0.02 4.42 0c12.97-0.07 25.57 2.82 35.55 11.68q0.49 1.48 1 3c-0.9 0.56-0.9 0.56-1.83 1.14-7.48 4.78-12.72 9.78-14.86 18.74-0.15 1.05-0.15 1.05-0.31 2.12q-0.78-0.5-1.57-1.02c-1.05-0.67-1.05-0.67-2.12-1.35q-1.02-0.66-2.07-1.34c-4.57-2.63-8.2-3.54-13.48-3.58q-1.88-0.02-3.81-0.04-2.08 0-4.16-0.01-2.2-0.01-4.39-0.03-5.97-0.05-11.94-0.06-3.73-0.02-7.47-0.03-11.71-0.05-23.42-0.07-13.48-0.02-26.95-0.13-10.44-0.07-20.88-0.08-6.23 0-12.45-0.06-5.86-0.06-11.73-0.03-2.14 0-4.27-0.03c-14.24-0.23-25.92 4.99-36.29 14.86-24.31 27.42-33.05 67.33-31 103 3.66 44.7 24.95 84.68 58.58 114.21 11.25 9.45 24.07 16.76 37.42 22.79q1.7 0.79 3.45 1.61c40.68 17.69 85.1 14.14 125.55-1.61q1.3-0.54 2.63-1.09c4.61-1.77 9.7-1.9 14.35-0.18 2.72 1.79 3.9 3.71 4.56 6.84 0.25 4.78-0.11 7.69-2.54 11.87-23.52 20.09-70.21 23.45-99.76 21.37-21.55-1.97-42.77-8.5-62.24-17.81q-1.17-0.56-2.38-1.14c-16.92-8.21-31.67-18.42-45.18-31.48-2.21-2.11-4.52-4.11-6.82-6.13-4.24-3.83-8.03-7.81-11.62-12.25q-1.15-1.41-2.34-2.86c-10.12-12.65-17.74-26.54-24.66-41.14q-0.8-1.65-1.62-3.35c-15.51-33.8-19.82-80.8-9.38-116.65q0.29-1.07 0.58-2.18c8.07-29.64 24.24-60.81 51.04-77.01q3.68-1.93 7.38-3.81 1.57-0.82 3.18-1.66c14.87-6.43 31.14-5.2 47.02-5.11z"/>
	<path class="s1" d="m291.34 40.23c20.44 9.11 38.12 21.97 54.22 37.39q1.92 1.84 3.87 3.65c29.11 27.92 50.87 74.54 51.93 114.86q0.07 5.7 0.03 11.41-0.02 4.34 0.02 8.67c0.02 15.8-1.56 31.18-6.16 46.35q-0.38 1.28-0.77 2.6-2.73 9.01-5.98 17.84-0.39 1.1-0.79 2.23c-1.96 5.08-4.15 7.74-8.71 10.77-3.11 0.82-5.86 0.63-9 0-3.64-2.17-5.35-4.17-7-8-1-7.61 1.49-13.29 4.41-20.15 3.63-8.59 6.18-17.64 7.59-26.85q0.28-1.79 0.56-3.64c6.2-44.5-3.68-88.71-30.77-124.85-22.54-28.94-53.62-47.86-88.79-57.51q-0.93-0.26-1.9-0.52c-9.4-2.55-18.59-4.08-28.32-4.62-6.27-0.45-9.93-2.29-14.65-6.55-1.8-3.7-1.66-7.28-1.13-11.31 1.27-3.08 2.55-4.59 5-6.81 20.64-8.17 57.57 7.04 76.34 15.04z"/>
	<path fill-rule="evenodd" class="s2" d="m187 219q0.25 0.97 0.52 1.98c1.9 6.88 4.01 12.16 9.73 16.71q1.35 1.14 2.75 2.31 0 1.48 0 3c-1.81 1.77-1.81 1.77-4.44 3.81q-1.49 1.18-3.02 2.4-0.84 0.65-1.7 1.33c-3.49 2.77-6.91 5.62-10.34 8.46-8.09 6.68-8.09 6.68-11.89 9.72q-1.44 1.16-2.92 2.34-1.23 0.97-2.49 1.98c-3.79 3.38-7.01 6.69-7.44 11.87-0.17 8.53 0.02 16.29 5.89 22.96 5.43 4.94 10.19 6.38 17.54 6.39q1.06 0 2.16 0.01 3.57 0.01 7.14 0 2.57 0.01 5.13 0.02 5.52 0.01 11.04 0.01 8.72 0.01 17.45 0.05 21.66 0.07 43.32 0.1 16.84 0.02 33.68 0.08 8.67 0.03 17.35 0.03 5.39 0 10.78 0.03 2.5 0.01 5.01 0 3.41 0 6.82 0.02c1.91 0.01 1.91 0.01 3.86 0.01 3.07 0.38 3.07 0.38 5.02 1.77 1.05 1.61 1.05 1.61 0.8 3.73-0.75 1.88-0.75 1.88-1.75 2.88q-3.57 0.17-7.15 0.17-1.12 0.01-2.27 0.02-2.44 0.02-4.88 0.04-3.87 0.03-7.73 0.06-10.99 0.11-21.98 0.19-6.71 0.05-13.42 0.12-2.57 0.02-5.13 0.03-3.58 0.02-7.16 0.07c-1.07 0-1.07 0-2.16 0-4-0.05-4-0.05-7.12 2.3-0.33 3.5-0.33 3.5 0 7 2.82 2.82 5.51 2.3 9.28 2.3 1.12 0.02 1.12 0.02 2.27 0.03q3.73 0.03 7.45 0.05 2.59 0.02 5.17 0.05 6.8 0.07 13.6 0.11 10.9 0.08 21.79 0.19 3.82 0.03 7.64 0.06 2.32 0.02 4.65 0.04 1.06 0 2.16 0c4.88 0.06 4.88 0.06 5.99 1.17q0.06 3 0 6c-2.92 1.46-5.49 1.14-8.76 1.15-1.05 0-1.05 0-2.13 0.01q-3.55 0.01-7.1 0.02-2.54 0.01-5.08 0.02-8.37 0.03-16.73 0.04-2.88 0-5.76 0.01-13.55 0.03-27.1 0.04-15.61 0.02-31.23 0.08-12.08 0.04-24.16 0.05-7.2 0-14.41 0.03-6.8 0.04-13.59 0.02-2.48 0-4.96 0.02c-16.81 0.13-32.51-3.67-45.15-15.45-9.82-10.85-14.01-23.84-14.09-38.16q-0.03-1.35-0.06-2.73c-0.07-12.5 4.29-23.2 13-32.21 3.93-3.72 8.1-7.13 12.32-10.52 3.21-2.59 6.35-5.25 9.49-7.92q8.66-7.35 17.5-14.5 1.32-1.11 2.69-2.25c2.31-1.75 2.31-1.75 4.31-1.75z"/>
	<path class="s0" d="m291.46 94.1c5.56 1.98 8.41 8.54 10.84 13.61 3.28 7.93 3.91 14.96 3.95 23.48q0.03 1.48 0.06 3c0.08 14.14-5.4 25.79-15.31 35.81q-2.85 2.62-5.81 5.13c-2.38 2.03-4.69 4.13-7 6.25-4.43 3.99-8.99 7.79-13.64 11.53q-3.36 2.76-6.61 5.65c-2.94 2.44-2.94 2.44-4.94 2.44q-1.32-2-2.6-4.02c-4.12-5.82-9.33-10.98-14.4-15.98 3.44-7.6 10.68-12.42 17.02-17.53 16.45-12.37 16.45-12.37 25.24-29.7 0.21-4.73-0.19-8.13-2.32-12.39-1.82-3.71-2.48-6.25-1.68-10.33 2.41-6.65 9.33-17.26 17.2-16.95z"/>
	<path class="s3" d="m210.68 265.64q1.32 0 2.68 0 4.4 0 8.8 0.03 3.05 0.01 6.1 0.01 6.4 0 12.79 0.04 8.21 0.04 16.43 0.04 6.3 0.01 12.59 0.03 3.03 0.01 6.06 0.01 4.23 0.01 8.45 0.04 1.26 0 2.55 0c5.76 0.05 5.76 0.05 6.87 1.16 0.12 3 0.12 3 0 6-1.65 1.65-3.58 1.15-5.86 1.17q-1.54 0.02-3.13 0.04-1.68 0.02-3.41 0.04-3.54 0.05-7.07 0.1-5.61 0.07-11.22 0.13-5.39 0.06-10.77 0.14c-1.69 0.01-1.69 0.01-3.41 0.03q-1.55 0.02-3.15 0.05-1.36 0.01-2.77 0.03c-2.42 0.07-2.42 0.07-4.21 2.27 0.16 3.57 0.16 3.57 1 7 2.47 1.23 4.12 1.14 6.88 1.16 1.52 0.01 1.52 0.01 3.07 0.03q1.64 0.01 3.33 0.02 3.46 0.04 6.93 0.09 5.48 0.06 10.96 0.1 5.27 0.05 10.55 0.12c1.65 0.01 1.65 0.01 3.33 0.01q1.51 0.03 3.07 0.05 1.34 0.02 2.72 0.03 1.06 0.19 2.16 0.39c2 3 2 3 1.75 5.06-0.75 1.94-0.75 1.94-2.75 3.94-2.14 0.25-2.14 0.25-4.83 0.24q-1.53 0-3.1 0.01-1.68-0.01-3.4-0.02c-1.78 0-1.78 0-3.58 0q-4.86-0.01-9.73-0.03-5.08-0.01-10.15-0.01-9.62-0.01-19.25-0.05-10.95-0.03-21.9-0.04-22.53-0.03-45.06-0.1 1.42-1.67 2.84-3.34 0.78-0.93 1.59-1.88c6.23-7.08 13.92-12.99 21.26-18.87 2.25-1.76 2.25-1.76 3.72-3.51 2.83-2.49 6.67-1.8 10.27-1.76z"/>
	<path class="s4" d="m152.89 126.88c1.25 0 1.25 0 2.52 0q1.42 0 2.89 0 1.57 0 3.19 0.01c1.65 0 1.65 0 3.34 0q5.49 0 10.99 0.01 3.79 0.01 7.59 0.01 9 0 17.99 0.02 10.24 0.01 20.47 0.02 21.07 0.02 42.13 0.05-0.58 0.66-1.17 1.33c-3.18 3.66-6.1 7.39-8.92 11.33-7.07 8.99-14.27 17.12-26.06 18.97-11.05 1.19-22.18 0.64-33.25 0.07-4.9-0.23-9.79-0.31-14.69-0.4-7.11-0.17-14.23-0.37-21.34-0.71q-1.1-0.04-2.25-0.09c-5.09-0.27-5.09-0.27-7.32-2.5 0.37-3.12 0.37-3.12 1-6 0.99-0.01 0.99-0.01 1.99-0.02q10.25-0.1 20.49-0.24 3.82-0.05 7.65-0.09 5.49-0.05 10.98-0.14 1.71-0.01 3.47-0.02 1.58-0.03 3.21-0.06 1.4-0.01 2.84-0.03c2.41-0.23 2.41-0.23 4.18-1.7 1.97-2.8 1.49-5.4 1.19-8.7-2.54-2.54-3.45-2.26-6.97-2.29q-1.54-0.02-3.13-0.04c-1.68-0.01-1.68-0.01-3.4-0.01q-1.71-0.03-3.47-0.05-5.52-0.07-11.03-0.11-7.25-0.06-14.5-0.16c-1.68 0-1.68 0-3.4-0.01q-1.54-0.02-3.13-0.04-1.36-0.01-2.77-0.02c-2.2-0.27-2.2-0.27-4.2-2.27-0.19-2.56-0.19-2.56 0-5 1-1 1-1 2.89-1.12z"/>
	<path class="s5" d="m385.2 312.61c4.68 2.02 7.5 4.71 9.95 9.18 2.06 5.36 1.54 10.25-0.71 15.46-2.36 4.09-5.01 6.98-9.44 8.75-5.18 0.86-10.16 0.8-14.94-1.56-4.6-3.67-6.69-6.59-7.44-12.35-0.24-6.17 0.02-10.38 4.38-15.09 5.76-5.07 10.66-6.49 18.2-4.39z"/>
	<path class="s6" d="m124.06 125.06c4.21 2.77 7.67 6.4 9.94 10.94 0.82 6.49-0.22 11.63-4 17-5.09 4.73-8.44 5.35-15.24 5.28-5.12-0.52-7.75-3.16-11.07-6.84-3.33-4.8-3.41-9.79-2.69-15.44 1.76-4.82 4.4-8.01 8.87-10.5 4.99-2.11 9.05-2.22 14.19-0.44z"/>
	<path class="s7" d="m331 264c5.67 1.96 9.31 5.63 12 11 0.72 7.11 0.51 12.33-4 18-3.37 2.87-6.63 4.23-11.06 4.44-5.56-0.62-9.04-2.17-12.69-6.38-3.7-5.04-5.22-8.67-4.25-15.06 3.59-9.6 10.42-12.87 20-12z"/>
	<path class="s8" d="m227.04 194.91c4.04 2.68 6.45 5.39 7.96 10.09 0.66 5.04 0.61 8.79-1.69 13.38-4.3 4.88-7.53 7.39-14.12 7.93-4.39-0.06-6.8-1.46-10.19-4.31-3.34-3.7-4.86-6.21-5.25-11.25 0.32-4.8 1.3-8.68 4.68-12.27 5.26-4.55 12-6.51 18.61-3.57z"/>
	<path class="s10" d="m51 182q1.48 0.49 3 1c0 4.29 0 8.58 0 13q-1.48-0.49-3-1c0-4.29 0-8.58 0-13z"/>
	<path class="s11" d="m284 97q0.99 0.49 2 1c-2.4 3.77-4.86 6.86-8 10q-0.49 1.48-1 3-0.99 0-2 0c1.36-6.04 4.86-9.63 9-14z"/>
	<path class="s12" d="m31 171c3 3 3 3 3.19 6.19q-0.09 1.38-0.19 2.81-1.97 0.49-4 1c0.33-3.3 0.66-6.6 1-10z"/>
	<path class="s13" d="m399 181q0.49 0 1 0c0.92 5.38 1.11 10.54 1 16q-0.49 0-1 0c-0.19-1.36-0.19-1.36-0.38-2.75-0.41-3.16-0.41-3.16-1.81-5.25-1.24-3.05-0.01-5.06 1.19-8z"/>
	<path class="s14" d="m263 155c0 3 0 3-1.53 4.61q-0.97 0.77-1.97 1.58-0.97 0.79-1.97 1.6-0.75 0.6-1.53 1.21c0-3 0-3 1.53-4.61 0.98-0.78 0.98-0.78 1.97-1.58q0.97-0.79 1.97-1.6 0.75-0.6 1.53-1.21z"/>
	<path class="s15" d="m67 100q1.48 0.49 3 1c-2.64 2.64-5.28 5.28-8 8q-0.99-0.49-2-1c2.31-2.64 4.62-5.28 7-8z"/>
	<path class="s16" d="m273 385c0.93 0.28 0.93 0.28 1.88 0.56 2.16 0.68 2.16 0.68 4.12-0.56q1.48 0.99 3 2c-2.97 0.66-5.94 1.32-9 2q0-1.97 0-4z"/>
	<path class="s17" d="m48 129q0.99 0 2 0c0.33 2.31 0.66 4.62 1 7q-1.48-0.49-3-1 0-2.95 0-6z"/>
</svg>